<?xml version="1.0" encoding="UTF-8" standalone="no"?>
<!-- Created with Inkscape (http://www.inkscape.org/) -->

<svg
   xmlns:dc="http://purl.org/dc/elements/1.1/"
   xmlns:cc="http://creativecommons.org/ns#"
   xmlns:rdf="http://www.w3.org/1999/02/22-rdf-syntax-ns#"
   xmlns:svg="http://www.w3.org/2000/svg"
   xmlns="http://www.w3.org/2000/svg"
   xmlns:sodipodi="http://sodipodi.sourceforge.net/DTD/sodipodi-0.dtd"
   xmlns:inkscape="http://www.inkscape.org/namespaces/inkscape"
   width="405.09885mm"
   height="56.524521mm"
   viewBox="0 0 405.09885 56.524521"
   version="1.1"
   id="svg8"
   inkscape:version="0.92.4 (5da689c313, 2019-01-14)"
   sodipodi:docname="neuromeka_left.svg">
  <defs
     id="defs2">
    <clipPath
       id="clipPath831"
       clipPathUnits="userSpaceOnUse">
      <path
         inkscape:connector-curvature="0"
         id="path829"
         d="M 0,1080 H 1920 V 0 H 0 Z" />
    </clipPath>
  </defs>
  <sodipodi:namedview
     id="base"
     pagecolor="#ffffff"
     bordercolor="#666666"
     borderopacity="1.0"
     inkscape:pageopacity="0.0"
     inkscape:pageshadow="2"
     inkscape:zoom="0.98994949"
     inkscape:cx="635.76127"
     inkscape:cy="88.881084"
     inkscape:document-units="mm"
     inkscape:current-layer="layer1"
     showgrid="false"
     inkscape:window-width="2560"
     inkscape:window-height="1377"
     inkscape:window-x="-8"
     inkscape:window-y="-8"
     inkscape:window-maximized="1"
     fit-margin-top="0"
     fit-margin-left="0"
     fit-margin-right="0"
     fit-margin-bottom="0" />
  <metadata
     id="metadata5">
    <rdf:RDF>
      <cc:Work
         rdf:about="">
        <dc:format>image/svg+xml</dc:format>
        <dc:type
           rdf:resource="http://purl.org/dc/dcmitype/StillImage" />
        <dc:title></dc:title>
      </cc:Work>
    </rdf:RDF>
  </metadata>
  <g
     inkscape:label="Layer 1"
     inkscape:groupmode="layer"
     id="layer1"
     transform="translate(17.367836,-134.24896)">
    <path
       inkscape:connector-curvature="0"
       id="path835"
       style="fill:#ffffff;fill-opacity:1;fill-rule:nonzero;stroke:none;stroke-width:0.35277778"
       d="m 50.318471,175.11605 v -17.03917 c 0,-2.09126 0.745419,-2.83527 2.836333,-2.83527 h 17.483314 c 2.091619,0 2.837744,0.74401 2.837744,2.83527 v 17.03917 h 4.897261 v -19.83352 c 0,-2.97321 -2.412647,-5.38692 -5.387269,-5.38692 H 50.805657 c -2.974269,0 -5.385505,2.41371 -5.385505,5.38692 v 19.83352 z" />
    <path
       inkscape:connector-curvature="0"
       id="path839"
       style="fill:#ffffff;fill-opacity:1;fill-rule:nonzero;stroke:none;stroke-width:0.35277778"
       d="m 151.0186,149.89572 v 17.05292 c 0,2.08915 -0.74542,2.83457 -2.83527,2.83457 h -17.48438 c -2.08985,0 -2.83598,-0.74542 -2.83598,-2.83457 v -17.05292 h -4.89832 v 19.84587 c 0,2.97532 2.41018,5.38656 5.38727,5.38656 h 22.17844 c 2.97462,0 5.38726,-2.41124 5.38726,-5.38656 v -19.84587 z" />
    <path
       inkscape:connector-curvature="0"
       id="path843"
       style="fill:#ffffff;fill-opacity:1;fill-rule:nonzero;stroke:none;stroke-width:0.35277778"
       d="m 183.81491,149.89572 h -16.66522 c -2.97462,0 -5.38657,2.41371 -5.38657,5.38692 v 19.84551 h 4.90009 v -17.05151 c 0,-2.09092 0.74295,-2.83493 2.83527,-2.83493 h 14.31643 z" />
    <path
       inkscape:connector-curvature="0"
       id="path847"
       style="fill:#ffffff;fill-opacity:1;fill-rule:nonzero;stroke:none;stroke-width:0.35277778"
       d="m 215.92146,166.94878 c 0,2.08915 -0.74436,2.83457 -2.83422,2.83457 h -17.48437 c -2.09162,0 -2.83422,-0.74542 -2.83422,-2.83457 v -8.87483 c 0,-2.08915 0.7426,-2.83422 2.83422,-2.83422 h 17.48437 c 2.08986,0 2.83422,0.74507 2.83422,2.83422 z m -0.48719,-17.05469 h -22.17843 c -2.97462,0 -5.38762,2.41371 -5.38762,5.38692 v 14.46071 c 0,2.97533 2.413,5.38657 5.38762,5.38657 h 22.17843 c 2.97568,0 5.38657,-2.41124 5.38657,-5.38657 v -14.46071 c 0,-2.97321 -2.41089,-5.38692 -5.38657,-5.38692" />
    <path
       inkscape:connector-curvature="0"
       id="path851"
       style="fill:#ffffff;fill-opacity:1;fill-rule:nonzero;stroke:none;stroke-width:0.35277778"
       d="m 267.51658,149.89399 h -14.79374 c -1.08373,0 -2.09126,0.32209 -2.93722,0.87595 -0.84667,-0.55386 -1.85456,-0.87595 -2.93758,-0.87595 h -14.79409 c -2.97498,0 -5.38692,2.41371 -5.38692,5.38692 v 19.83528 h 4.89938 v -17.04234 c 0,-2.0888 0.74507,-2.83422 2.83527,-2.83422 h 10.09862 c 2.09162,0 2.83633,0.74542 2.83633,2.83422 v 17.04234 h 4.89832 v -17.04234 c 0,-2.0888 0.74542,-2.83422 2.83528,-2.83422 h 10.09756 c 2.09232,0 2.83703,0.74542 2.83703,2.83422 v 17.04234 h 4.89762 v -19.83528 c 0,-2.97321 -2.41018,-5.38692 -5.38586,-5.38692" />
    <path
       inkscape:connector-curvature="0"
       id="path855"
       style="fill:#ffffff;fill-opacity:1;fill-rule:nonzero;stroke:none;stroke-width:0.35277778"
       d="m 353.01901,149.89399 h -6.47418 l -10.81828,9.00783 H 322.4681 v -9.00783 h -4.89832 v 25.2222 h 4.89832 v -10.80946 h 13.25845 l 10.81828,10.80946 h 6.47418 l -13.33429,-13.60946 z" />
    <path
       inkscape:connector-curvature="0"
       id="path859"
       style="fill:#ffffff;fill-opacity:1;fill-rule:nonzero;stroke:none;stroke-width:0.35277778"
       d="m 89.117993,158.07385 c 0,-2.0888 0.744361,-2.83422 2.833511,-2.83422 h 6.53803 4.409016 6.53803 c 1.86161,0 2.83528,0.73978 2.83528,2.31881 v 0.0956 c -0.002,1.68275 -0.84773,2.32199 -2.83528,2.32199 H 98.489534 89.117993 Z m 2.833511,11.7094 c -2.08033,0 -2.827514,-0.75318 -2.833511,-2.82328 v -1.63689 h 9.371541 13.293376 c 3.07163,0 5.36045,-1.36454 5.36045,-4.21781 v -6.37505 c 0,-2.78271 -2.57033,-4.83623 -5.36045,-4.83623 h -8.88436 -4.409016 -8.884355 c -2.789061,0 -5.084233,2.1202 -5.360458,4.83623 -0.01799,0.18062 -0.02681,0.36654 -0.02681,0.55069 v 3.07904 7.68491 3.68406 0.0127 c 0,2.97533 2.410177,5.38657 5.387269,5.38657 h 27.56605 v -5.34494 z" />
    <path
       inkscape:connector-curvature="0"
       id="path863"
       style="fill:#ffffff;fill-opacity:1;fill-rule:nonzero;stroke:none;stroke-width:0.35277778"
       d="m 283.64791,158.07385 c 0,-2.0888 0.7433,-2.83422 2.83422,-2.83422 h 6.53803 4.41184 6.53626 c 1.86055,0 2.83457,0.73978 2.83457,2.31881 v 0.0956 c -0.004,1.68275 -0.84878,2.32199 -2.83457,2.32199 h -10.9481 -9.37225 z m 2.83422,11.7094 c -2.08104,0 -2.82716,-0.75318 -2.83422,-2.82328 v -1.63689 h 9.37225 13.29443 7e-4 c 3.07058,0 5.35693,-1.36454 5.35693,-4.21781 v -6.37505 c 0,-2.78271 -2.56857,-4.83623 -5.35693,-4.83623 h -7e-4 -8.88259 -4.41184 -8.88577 c -2.78941,0 -5.08176,2.1202 -5.35728,4.83623 -0.0169,0.18062 -0.0279,0.36654 -0.0279,0.55069 v 3.07904 7.68491 3.68406 0.0127 c 0,2.97533 2.41053,5.38657 5.38515,5.38657 h 27.56711 v -5.34494 z" />
    <path
       inkscape:connector-curvature="0"
       id="path867"
       style="fill:#ffffff;fill-opacity:1;fill-rule:nonzero;stroke:none;stroke-width:0.35277778"
       d="m 362.51269,169.78321 c -1.86231,0 -2.83457,-0.74013 -2.83457,-2.31846 v -0.90805 c 0.002,-1.68204 0.84737,-2.32268 2.83457,-2.32268 h 20.31859 v 5.54919 z m 19.83211,-19.88926 h -26.2636 v 5.34564 h 23.91621 c 2.08139,0 2.82787,0.75318 2.83387,2.82258 v 0.82585 h -22.66668 -0.002 c -3.06882,0 -5.35623,1.36349 -5.35623,4.21711 v 7.18643 c 0,2.78412 2.56928,4.83659 5.35623,4.83659 h 0.002 27.56641 v -19.84728 c 0,-2.97427 -2.41088,-5.38692 -5.38621,-5.38692" />
    <path
       inkscape:connector-curvature="0"
       id="path871"
       style="fill:#0072ce;fill-opacity:1;fill-rule:nonzero;stroke:none;stroke-width:0.35277778"
       d="m 13.672128,146.02292 c -0.360892,0 -0.722136,0.0684 -1.051983,0.2092 -0.322792,0.13617 -0.618067,0.33231 -0.865011,0.58032 -0.246592,0.24235 -0.445559,0.53869 -0.583142,0.85725 -0.139347,0.33125 -0.216606,0.69144 -0.216606,1.04986 v 9.02935 c -0.02152,0.32561 -0.109008,0.64699 -0.255411,0.94051 -0.138289,0.28398 -0.328789,0.54116 -0.559152,0.76094 -0.2314227,0.21625 -0.5030616,0.39299 -0.7955143,0.51576 -0.3033889,0.12735 -0.6251223,0.20496 -0.9609667,0.20496 H -7.5728549 c -0.085725,0 -0.17145,0.003 -0.257175,0.0127 -0.083961,0.008 -0.1689805,0.0173 -0.2536472,0.031 -0.2779889,0.0406 -0.5471583,0.115 -0.8078611,0.21837 -0.1358194,0.0561 -0.2716389,0.11747 -0.3989916,0.18909 -0.1298222,0.0755 -0.2554111,0.15169 -0.3757084,0.23988 -0.1308805,0.097 -0.2554111,0.20144 -0.3750028,0.31609 -0.115711,0.11183 -0.226836,0.23319 -0.328789,0.35984 -0.142875,0.18132 -0.269522,0.37641 -0.376766,0.58032 -0.0762,0.14499 -0.141817,0.29845 -0.196498,0.45367 -0.05256,0.15628 -0.09701,0.3175 -0.129822,0.48013 -0.05045,0.248 -0.07444,0.50059 -0.07091,0.75 0.0035,0.25295 0.03281,0.50695 0.08643,0.75213 0.0762,0.32702 0.194028,0.64029 0.353131,0.93098 0.166511,0.30092 0.622653,0.82162 0.617361,0.81562 -0.0049,-0.006 20.447352,23.39163 21.357166,24.43233 H 27.629075 L 3.0348199,167.17865 H 13.924717 c 2.22003,0 4.032603,-1.7907 4.035425,-4.0005 v -8.77076 c 0,-0.70556 0.508,-1.32433 1.249186,-1.32433 h 10.395655 v -7.06014 z" />
    <path
       inkscape:connector-curvature="0"
       id="path875"
       style="fill:#ffffff;fill-opacity:1;fill-rule:nonzero;stroke:none;stroke-width:0.35277778"
       d="M 29.605018,153.08296 H 19.209363 c -0.741186,0 -1.249186,0.61877 -1.249186,1.32433 v 8.77111 c -0.0028,2.20945 -1.815748,4.0005 -4.035425,4.0005 H 3.0348547 l 24.5942553,23.55462 0.04198,0.0399 h 2.065514 V 153.083 Z" />
    <path
       inkscape:connector-curvature="0"
       id="path879"
       style="fill:#ffffff;fill-opacity:1;fill-rule:nonzero;stroke:none;stroke-width:0.35277778"
       d="m -17.367836,134.24896 v 56.52452 h 28.673072 c 0,0 -0.01446,-0.0162 -0.03493,-0.0402 -0.909814,-1.0407 -21.362458,-24.43868 -21.357167,-24.43233 0.0049,0.006 -0.451202,-0.51471 -0.617361,-0.81563 -0.159455,-0.29068 -0.27693,-0.60395 -0.353483,-0.93098 -0.05362,-0.24518 -0.0829,-0.49918 -0.08643,-0.75212 -0.0035,-0.24941 0.02081,-0.502 0.07091,-0.75 0.03316,-0.16263 0.07726,-0.32385 0.129822,-0.48013 0.05468,-0.15523 0.12065,-0.30868 0.19685,-0.45368 0.107244,-0.2039 0.233539,-0.39899 0.376414,-0.58032 0.101953,-0.12664 0.213078,-0.248 0.329142,-0.35983 0.1192384,-0.11465 0.2437689,-0.21907 0.3746495,-0.31609 0.1202972,-0.0882 0.2458861,-0.16439 0.3757083,-0.23989 0.1273528,-0.0716 0.2631722,-0.13299 0.3989917,-0.18909 0.2607028,-0.10336 0.5298722,-0.1778 0.8078611,-0.21837 0.085019,-0.0137 0.1696861,-0.0233 0.2536472,-0.031 0.085725,-0.01 0.17145,-0.0127 0.257175,-0.0127 H 8.3842357 c 0.3358444,0 0.6579305,-0.0776 0.9609666,-0.20496 0.2924528,-0.12277 0.5644444,-0.29951 0.7955137,-0.51576 0.230364,-0.21978 0.420864,-0.47696 0.559506,-0.76095 0.14605,-0.29351 0.233539,-0.61489 0.255411,-0.9405 v -9.02935 c 0,-0.35842 0.07691,-0.71861 0.216253,-1.04987 0.137583,-0.31855 0.33655,-0.61489 0.583494,-0.85725 0.246592,-0.248 0.541867,-0.44414 0.864658,-0.58031 0.329848,-0.14076 0.691092,-0.2092 1.051984,-0.2092 h 15.932855 0.131586 v -11.77396 z" />
  </g>
</svg>
